<svg width="50" height="50" viewBox="0 0 50 50" fill="none" xmlns="http://www.w3.org/2000/svg">
<path d="M46.875 25C46.875 19.1984 44.5703 13.6344 40.4679 9.53205C36.3656 5.42969 30.8016 3.12501 25 3.12501C19.4917 3.11992 14.1842 5.19311 10.1378 8.93044C6.09133 12.6678 3.6038 17.7941 3.17207 23.2855C2.74034 28.7768 4.39619 34.2289 7.80887 38.5527C11.2215 42.8765 16.1398 45.7536 21.5812 46.6094V31.3219H16.0312V25H21.5844V20.1813C21.5844 14.7 24.85 11.6688 29.8469 11.6688C32.2406 11.6688 34.7437 12.0969 34.7437 12.0969V17.4813H31.9844C29.2656 17.4813 28.4219 19.1688 28.4219 20.8969V25H34.4875L33.5187 31.3219H28.4187V46.6094C33.5641 45.7946 38.2498 43.1706 41.6331 39.2093C45.0163 35.248 46.8751 30.2095 46.875 25Z" fill="#1877F2"/>
<path d="M33.5156 31.3219L34.4844 25H28.4187V20.8969C28.4187 19.1688 29.2625 17.4813 31.9813 17.4813H34.7406V12.0938C34.7406 12.0938 32.2375 11.6656 29.8438 11.6656C24.8438 11.6656 21.5813 14.6969 21.5813 20.1781V25H16.0312V31.3219H21.5844V46.6094C23.8496 46.9659 26.1566 46.9659 28.4219 46.6094V31.3219H33.5156Z" fill="white"/>
</svg>
