<svg width="50" height="50" viewBox="0 0 50 50" fill="none" xmlns="http://www.w3.org/2000/svg">
<path d="M46.0293 24.2392C46.0293 22.7608 45.9056 21.2762 45.6455 19.8227H24.585V28.1929H36.644C36.3952 29.5323 35.8714 30.8084 35.1044 31.9439C34.3373 33.0794 33.3429 34.0507 32.1813 34.7989V40.2341H39.3781C43.6029 36.445 46.0293 30.8546 46.0293 24.2392Z" fill="#4285F4"/>
<path d="M24.5881 45.48C30.6081 45.48 35.6861 43.5544 39.3844 40.2311L32.1909 34.7991C30.1895 36.1253 27.6045 36.8769 24.5945 36.8769C18.7711 36.8769 13.8327 33.0505 12.0596 27.9073H4.6377V33.5071C6.50777 37.1136 9.36231 40.1419 12.8842 42.2555C16.4061 44.3691 20.4574 45.4853 24.5881 45.48Z" fill="#34A853"/>
<path d="M12.0501 27.9071C11.1148 25.2082 11.1148 22.2825 12.0501 19.5836V13.9838H4.63452C3.07288 17.0106 2.25928 20.3542 2.25928 23.7454C2.25928 27.1365 3.07288 30.4802 4.63452 33.5069L12.0501 27.9071Z" fill="#FBBC04"/>
<path d="M24.5881 10.6016C27.7682 10.5511 30.8421 11.7217 33.1519 13.8627L39.5272 7.65422C35.4754 3.95849 30.125 1.93401 24.5881 2.00164C20.4563 1.99652 16.404 3.11377 12.8818 5.22915C9.35973 7.34453 6.50588 10.3751 4.6377 13.9839L12.0469 19.5774C13.8105 14.428 18.7584 10.6016 24.5818 10.6016H24.5881Z" fill="#EA4335"/>
</svg>
