<svg width="4" height="16" viewBox="0 0 4 16" fill="none" xmlns="http://www.w3.org/2000/svg">
<path d="M2 12C2.39556 12 2.78224 12.1173 3.11114 12.3371C3.44004 12.5568 3.69638 12.8692 3.84776 13.2346C3.99913 13.6001 4.03874 14.0022 3.96157 14.3902C3.8844 14.7781 3.69392 15.1345 3.41421 15.4142C3.13451 15.6939 2.77814 15.8844 2.39018 15.9616C2.00222 16.0387 1.60009 15.9991 1.23463 15.8478C0.869181 15.6964 0.556824 15.44 0.337061 15.1111C0.117298 14.7822 0 14.3956 0 14C0 13.4696 0.210714 12.9609 0.585787 12.5858C0.96086 12.2107 1.46957 12 2 12ZM0 2C0 2.39556 0.117298 2.78224 0.337061 3.11114C0.556824 3.44004 0.869181 3.69638 1.23463 3.84776C1.60009 3.99913 2.00222 4.03874 2.39018 3.96157C2.77814 3.8844 3.13451 3.69392 3.41421 3.41421C3.69392 3.13451 3.8844 2.77814 3.96157 2.39018C4.03874 2.00222 3.99913 1.60009 3.84776 1.23463C3.69638 0.869181 3.44004 0.556824 3.11114 0.337061C2.78224 0.117298 2.39556 0 2 0C1.46957 0 0.96086 0.210714 0.585787 0.585786C0.210714 0.960859 0 1.46957 0 2ZM0 8C0 8.39556 0.117298 8.78224 0.337061 9.11114C0.556824 9.44004 0.869181 9.69638 1.23463 9.84776C1.60009 9.99913 2.00222 10.0387 2.39018 9.96157C2.77814 9.8844 3.13451 9.69392 3.41421 9.41421C3.69392 9.13451 3.8844 8.77814 3.96157 8.39018C4.03874 8.00222 3.99913 7.60009 3.84776 7.23463C3.69638 6.86918 3.44004 6.55682 3.11114 6.33706C2.78224 6.1173 2.39556 6 2 6C1.46957 6 0.96086 6.21071 0.585787 6.58579C0.210714 6.96086 0 7.46957 0 8Z" fill="black"/>
</svg>
