<svg width="50" height="50" viewBox="0 0 50 50" fill="none" xmlns="http://www.w3.org/2000/svg">
<path d="M25 0C11.1938 0 0 11.1879 0 24.9943C0 33.5016 4.24764 41.012 10.7359 45.5271C11.9645 41.2492 15.0157 38.0007 19.1726 36.429C18.36 37.3828 19.2609 44.3636 20.5941 43.4257L22.797 41.8801L24.9943 40.3288L24.8494 40.2268L22.7972 38.7832L19.6082 36.413C19.5649 36.3797 19.5164 36.3538 19.4647 36.3365C19.456 36.3334 19.4474 36.3318 19.4389 36.3298L19.3772 36.3515C19.5902 36.2745 19.8049 36.2023 20.0212 36.1353C20.0822 36.1161 20.1426 36.0964 20.2041 36.0779C20.6245 35.9524 21.05 35.8442 21.4793 35.7536C21.5438 35.7399 21.6091 35.7277 21.6742 35.7149C21.9049 35.669 22.1366 35.6278 22.369 35.5914C22.5269 35.567 22.686 35.5448 22.8457 35.5247C22.9142 35.5162 22.9822 35.5066 23.0511 35.4987C23.2794 35.4722 23.5082 35.4501 23.7374 35.4325H26.2691C26.4994 35.4498 26.7271 35.4726 26.9533 35.4985C27.0245 35.5066 27.0943 35.5164 27.1651 35.5255C27.3998 35.5553 27.6339 35.5898 27.8672 35.6291C28.0204 35.6551 28.1724 35.6834 28.3236 35.7133C28.3925 35.7269 28.4619 35.7399 28.5305 35.7544C28.7412 35.799 28.9506 35.8466 29.1573 35.899L29.174 35.9031C29.3844 35.9568 29.5919 36.0152 29.7976 36.0769C29.8631 36.0964 29.928 36.1176 29.9933 36.1381C30.1359 36.1829 30.2775 36.2288 30.4179 36.2773C30.4895 36.3021 30.5603 36.3271 30.6311 36.3527C30.6049 36.3432 30.5782 36.334 30.5518 36.3247C30.5475 36.3253 30.543 36.3271 30.5387 36.3281C30.4844 36.3397 30.4262 36.3666 30.3636 36.4134L27.1975 38.7836L25.1394 40.2275L24.9945 40.3292L27.1975 41.8805L29.3947 43.4261C30.7367 44.3701 31.6268 37.2886 30.7835 36.4107C34.965 37.9746 38.0351 41.2309 39.2692 45.5245C45.7546 41.0089 50.0002 33.5 50.0002 24.9949C50 11.1879 38.8061 0 25 0ZM25 35.4268C18.6312 35.4268 13.4473 30.3678 13.2393 24.0495C13.2322 24.045 13.2251 24.0413 13.218 24.0369C12.9765 19.5233 15.3103 16.0461 18.2843 13.9917C18.3394 13.9532 18.394 13.9136 18.4497 13.8761C18.5059 13.8385 18.563 13.8037 18.6196 13.7673C18.7252 13.6991 18.8306 13.6306 18.9384 13.5657C19.0442 13.5018 19.1512 13.4422 19.258 13.382C19.3052 13.3555 19.3512 13.3272 19.3988 13.3014C21.0925 12.3733 22.9067 11.8835 24.528 11.8978C24.6847 11.8917 24.8415 11.8858 24.9996 11.8858C25.151 11.8858 25.3011 11.8915 25.4513 11.8972C26.7476 11.8882 28.1661 12.1995 29.5477 12.7974C30.7677 13.3096 31.8925 14.0238 32.875 14.9101C35.2647 17.0138 36.9783 20.1398 36.77 24.0369L36.7603 24.0426C36.5564 30.364 31.3708 35.4268 25 35.4268Z" fill="#F7B970"/>
<path d="M19.2581 13.3817C19.3051 13.3551 19.3517 13.3272 19.3989 13.3011C19.3515 13.3272 19.3055 13.3555 19.2581 13.3817ZM25.4516 11.8971C25.3011 11.8905 25.1505 11.8867 24.9999 11.8857C24.8418 11.8857 24.685 11.8914 24.5283 11.8977C24.6815 11.8992 24.8333 11.9043 24.9826 11.9146C25.1387 11.9039 25.2951 11.898 25.4516 11.8971ZM18.6197 13.7673C18.7255 13.6989 18.8313 13.6303 18.9385 13.5656C18.8307 13.6305 18.7253 13.6989 18.6197 13.7673ZM18.2842 13.9917C18.3396 13.9534 18.3941 13.9133 18.4496 13.8761C18.3939 13.9137 18.3396 13.9532 18.2842 13.9917ZM29.5479 12.7974C30.7601 13.3241 31.8828 14.0369 32.8751 14.91C31.8926 14.0239 30.7678 13.3096 29.5479 12.7974ZM23.059 18.8877C20.7976 22.8572 16.9659 26.3745 13.2393 24.0494C13.447 30.3678 18.6311 35.4268 24.9999 35.4268C31.3708 35.4268 36.5563 30.3639 36.7606 24.0425C33.648 25.9851 25.4823 23.1711 23.059 18.8877Z" fill="#FCE9EA"/>
<path d="M30.5385 36.3275C30.5428 36.3265 30.5474 36.3247 30.5515 36.3241C30.578 36.3334 30.6046 36.3426 30.6309 36.3521C30.56 36.3265 30.4889 36.3013 30.4176 36.2767C30.4589 36.2909 30.4998 36.3059 30.5409 36.3204C30.5399 36.3226 30.5395 36.3251 30.5385 36.3275ZM30.7832 36.4099C31.6265 37.2878 30.7365 44.3693 29.3945 43.4253L27.1972 41.8797L24.9943 40.3284L22.797 41.8797L20.594 43.4253C19.2606 44.3632 18.3599 37.3824 19.1725 36.4286C15.0156 38.0003 11.9645 41.2486 10.7358 45.5267C14.7815 48.3423 19.6976 49.9939 25 49.9939C30.3045 49.9939 35.2223 48.3409 39.269 45.5235C38.0346 41.2301 34.9646 37.9736 30.7832 36.4099ZM19.5839 36.2781C19.5145 36.3019 19.4456 36.3263 19.3768 36.3511L19.4384 36.3293C19.447 36.3314 19.4555 36.3332 19.4643 36.3361L19.4596 36.322C19.5011 36.3074 19.5422 36.2925 19.5839 36.2781Z" fill="#D5E270"/>
<path d="M24.9998 40.2303C24.9491 40.2303 24.8993 40.2277 24.849 40.2264L24.9939 40.3284L25.1387 40.2266C25.0925 40.2279 25.0463 40.2303 24.9998 40.2303ZM21.4786 35.7532C21.5431 35.7395 21.6084 35.7273 21.6735 35.7145C21.6086 35.7273 21.5433 35.7395 21.4786 35.7532ZM26.9529 35.498C27.0239 35.5062 27.0939 35.5162 27.1647 35.5251C27.0939 35.516 27.0239 35.5062 26.9529 35.498ZM20.0205 36.1348C20.0815 36.1157 20.1422 36.096 20.2034 36.0775C20.142 36.096 20.0815 36.1159 20.0205 36.1348Z" fill="#D5E270"/>
<path d="M25.1391 40.227L27.1972 38.7832L30.3633 36.413C30.4261 36.3664 30.4843 36.3393 30.5385 36.3277L30.5411 36.3206C30.5 36.3062 30.4591 36.2911 30.4178 36.2769C30.2769 36.2285 30.1354 36.1822 29.9932 36.1377C29.9279 36.1171 29.863 36.096 29.7975 36.0765C29.5908 36.0143 29.3829 35.9564 29.1739 35.9027L29.1572 35.8986C28.9493 35.8462 28.7403 35.798 28.5304 35.754C28.4618 35.7395 28.3925 35.7265 28.3235 35.7129C28.0942 35.6675 27.8641 35.6267 27.6332 35.5906C27.4775 35.5665 27.3214 35.5447 27.165 35.5251C27.0942 35.5162 27.0243 35.5062 26.9532 35.498C26.7256 35.4716 26.4975 35.4497 26.269 35.4321H23.7373C23.5082 35.4497 23.2794 35.4718 23.0511 35.4982C22.9823 35.5062 22.9141 35.5157 22.8456 35.5243C22.6857 35.5446 22.5268 35.5666 22.3689 35.591C22.1364 35.6272 21.9048 35.6684 21.6741 35.7145C21.6092 35.7273 21.5439 35.7395 21.4792 35.7532C21.0499 35.8437 20.6244 35.9519 20.204 36.0775C20.1425 36.096 20.0819 36.1157 20.0211 36.1348C19.8742 36.1808 19.7285 36.228 19.5843 36.2781C19.5426 36.2923 19.5015 36.3074 19.46 36.322L19.4646 36.3361C19.5098 36.3503 19.5574 36.3749 19.6081 36.4126L22.7972 38.7828L24.8494 40.2264C24.8996 40.2277 24.9495 40.2303 25.0001 40.2303C25.0465 40.2305 25.0927 40.2281 25.1391 40.227Z" fill="#FEFEFE"/>
<path d="M23.0591 18.8877C25.4824 23.1712 33.6481 25.9851 36.7607 24.0426L36.7704 24.0369C36.9788 20.1398 35.2653 17.0137 32.8754 14.9101C31.883 14.037 30.7604 13.3242 29.5481 12.7974C28.1665 12.1995 26.748 11.888 25.4517 11.8972C25.2936 11.8982 25.1371 11.9039 24.9827 11.9147C25.3874 13.3559 24.5768 16.2235 23.0591 18.8877Z" fill="#ED7667"/>
<path d="M23.059 18.8877C24.5767 16.2235 25.3873 13.3561 24.9826 11.9146C24.8314 11.9044 24.6799 11.8988 24.5283 11.8978C22.907 11.8835 21.0928 12.3732 19.3991 13.3014C19.3519 13.3272 19.3053 13.3553 19.2583 13.3819C19.1515 13.4422 19.0445 13.5018 18.9387 13.5657C18.8315 13.6303 18.7257 13.6989 18.6199 13.7673C18.5633 13.8037 18.5062 13.8387 18.45 13.8761C18.3943 13.9133 18.3397 13.9534 18.2846 13.9917C15.3102 16.0461 12.9764 19.5233 13.2179 24.0368C13.225 24.0413 13.2321 24.045 13.2392 24.0495C16.9658 26.3745 20.7976 22.8572 23.059 18.8877Z" fill="#F08E83"/>
</svg>
