<svg width="72" height="72" viewBox="0 0 72 72" fill="none" xmlns="http://www.w3.org/2000/svg">
<path d="M36 72C16.1508 72 0 55.8492 0 36C0 16.1508 16.1508 0 36 0C55.8492 0 72 16.1508 72 36C72 55.8492 55.8492 72 36 72ZM36 5.99766C19.4555 5.99766 5.99766 19.4555 5.99766 36C5.99766 52.5445 19.4555 66.0023 36 66.0023C52.5445 66.0023 66.0023 52.5445 66.0023 36C66.0023 19.4555 52.5445 5.99766 36 5.99766Z" fill="#3688FF"/>
<path d="M48.0024 39.0022H23.9977C22.3383 39.0022 20.9954 37.6593 20.9954 35.9999C20.9954 34.3405 22.3383 32.9976 23.9977 32.9976H47.9954C49.6547 32.9976 50.9977 34.3405 50.9977 35.9999C50.9977 37.6593 49.6547 39.0022 48.0024 39.0022Z" fill="#5F6379"/>
<path d="M35.9999 50.9975C34.3405 50.9975 32.9976 49.6545 32.9976 47.9951V23.9975C32.9976 22.3381 34.3405 20.9951 35.9999 20.9951C37.6593 20.9951 39.0022 22.3381 39.0022 23.9975V47.9951C39.0022 49.6545 37.6593 50.9975 35.9999 50.9975Z" fill="#5F6379"/>
</svg>
